<?xml version="1.0" standalone="no"?>
<!DOCTYPE svg PUBLIC "-//W3C//DTD SVG 20010904//EN"
 "http://www.w3.org/TR/2001/REC-SVG-20010904/DTD/svg10.dtd">
<svg version="1.0" xmlns="http://www.w3.org/2000/svg"
 width="512.000000pt" height="512.000000pt" viewBox="0 0 512.000000 512.000000"
 preserveAspectRatio="xMidYMid meet">
<metadata>
Created by potrace 1.14, written by Peter Selinger 2001-2017
</metadata>
<g transform="translate(0.000000,512.000000) scale(0.100000,-0.100000)"
fill="#000000" stroke="none">
<path d="M2468 4645 c-2 -2 -45 -6 -97 -9 -51 -3 -96 -8 -100 -10 -3 -2 -28
-7 -56 -10 -27 -4 -66 -11 -85 -16 -19 -5 -44 -11 -55 -13 -61 -11 -193 -55
-306 -102 -396 -165 -752 -474 -979 -850 -124 -205 -234 -493 -266 -695 -2
-14 -6 -38 -9 -55 -2 -16 -7 -46 -9 -65 -3 -19 -8 -57 -11 -83 -7 -53 -8 -343
-2 -355 3 -4 8 -38 11 -77 4 -38 11 -86 16 -105 5 -19 11 -53 15 -75 17 -115
99 -344 180 -502 249 -486 676 -850 1190 -1018 222 -73 405 -100 670 -99 94 0
208 6 255 13 165 24 459 104 498 134 6 5 12 7 12 4 0 -12 250 120 345 181 218
140 461 365 518 478 50 99 59 204 27 308 -70 226 -328 343 -545 246 -53 -24
-91 -54 -194 -153 -133 -129 -243 -209 -376 -276 -80 -39 -240 -95 -305 -107
-111 -19 -146 -22 -264 -22 -257 0 -490 71 -704 215 -131 88 -309 275 -364
383 -7 14 -15 27 -19 30 -10 9 -71 143 -91 199 -103 301 -94 613 27 906 167
406 540 705 970 778 53 9 142 13 263 11 157 -2 190 0 237 16 106 36 195 117
243 220 23 48 26 69 26 160 1 99 -1 109 -32 173 -40 80 -106 149 -181 187 -59
29 -82 35 -171 46 -57 7 -277 14 -282 9z"/>
<path d="M3290 4512 c50 -34 113 -108 138 -162 73 -160 43 -336 -78 -458 -77
-77 -199 -127 -292 -119 -21 2 -38 2 -38 0 0 -1 37 -21 83 -42 369 -175 642
-533 701 -921 3 -19 8 -46 11 -60 8 -33 8 -240 1 -288 -3 -20 -8 -56 -11 -80
-10 -71 -61 -231 -101 -317 -65 -138 -65 -134 1 -51 125 158 366 193 535 77
112 -77 171 -189 174 -330 l1 -83 32 68 c72 156 126 347 171 610 14 80 12 388
-3 499 -39 289 -128 549 -268 787 -203 344 -505 625 -857 798 -113 56 -195 90
-213 89 -7 0 -1 -8 13 -17z"/>
</g>
</svg>
